<svg fill="#000000" xmlns="http://www.w3.org/2000/svg"  viewBox="0 0 100 100" width="100px" height="100px"><path d="M69.307,17.654h-39c-7.168,0-13,5.832-13,13v39c0,7.168,5.832,13,13,13h39c7.168,0,13-5.832,13-13v-39C82.307,23.485,76.476,17.654,69.307,17.654z M80.307,69.654c0,6.065-4.935,11-11,11h-39c-6.065,0-11-4.935-11-11v-39c0-6.065,4.935-11,11-11h39c6.065,0,11,4.935,11,11V69.654z"/><path d="M76.807,47.654c-0.276,0-0.5,0.224-0.5,0.5v18.663c0,5.424-4.413,9.837-9.837,9.837H33.144c-5.424,0-9.837-4.413-9.837-9.837V33.49c0-5.424,4.413-9.837,9.837-9.837h33.663c0.276,0,0.5-0.224,0.5-0.5s-0.224-0.5-0.5-0.5H33.144c-5.976,0-10.837,4.861-10.837,10.837v33.326c0,5.976,4.861,10.837,10.837,10.837H66.47c5.976,0,10.837-4.861,10.837-10.837V48.154C77.307,47.877,77.083,47.654,76.807,47.654z"/><path d="M76.807 41.654c-.276 0-.5.224-.5.5v4c0 .276.224.5.5.5s.5-.224.5-.5v-4C77.307 41.877 77.083 41.654 76.807 41.654zM76.307 38.154v2c0 .276.224.5.5.5s.5-.224.5-.5v-2c0-.276-.224-.5-.5-.5S76.307 37.877 76.307 38.154zM35.807 44.654c-.276 0-.5.224-.5.5v19c0 .276.224.5.5.5h6c.276 0 .5-.224.5-.5v-19c0-.276-.224-.5-.5-.5H35.807zM41.307 63.654h-5v-18h5V63.654zM38.825 35.695c-2.087 0-3.602 1.463-3.602 3.479s1.484 3.479 3.565 3.479c2.087 0 3.602-1.463 3.602-3.491C42.34 37.121 40.873 35.695 38.825 35.695zM38.753 41.654c-1.489 0-2.53-1.02-2.53-2.479 0-1.46 1.07-2.479 2.602-2.479 1.521 0 2.528.978 2.565 2.479C41.391 40.634 40.321 41.654 38.753 41.654zM45.375 64.506c.094.094.222.147.354.147h6.077c.276 0 .5-.224.5-.5V53.54c0-.612.059-1.067.176-1.354.243-.6 1-1.997 2.784-1.997 2.668 0 2.956 2.708 2.956 3.876l.083 10.092c.002.275.226.496.5.496h6c.276 0 .5-.224.5-.5V53.974c0-3.33-.821-5.838-2.441-7.456-1.32-1.318-3.099-1.986-5.288-1.986-2.2.013-3.983.669-5.271 2.05v-1.43c0-.276-.224-.5-.5-.5H45.73c-.137 0-.267.056-.362.155-.094.099-.144.232-.138.368.081 1.749 0 18.803 0 18.975C45.229 64.284 45.282 64.412 45.375 64.506zM46.243 45.654h5.064v2.304c-.056.141-.033.304.043.441.089.157.276.255.457.255.208 0 .386-.165.461-.364.73-1.2 2.077-2.756 5.292-2.756.006 0 .011 0 .017 0 1.915 0 3.457.57 4.582 1.693 1.425 1.423 2.148 3.693 2.148 6.748v9.679h-5.004l-.08-9.592c0-3.005-1.516-4.873-3.956-4.873-1.66 0-3.047.98-3.71 2.62-.168.412-.25.978-.25 1.731v10.113h-5.075C46.245 60.957 46.296 48.681 46.243 45.654z"/></svg>